# xmcd
#
# Track frame offsets: 
#        150
#        36020
#        48939
#        73960
#        90458
#        108370
#        124528
#        139773
#        166478
#        184724
#        198463
#        212740
#
# Disc length: 3049 seconds
#
# Revision: 1
# Processed by: cddbd v1.5.1PL2 Copyright (c) Steve Scherf et al.
# Submitted via: ExactAudioCopy v0.95b3
#
DISCID=a80be70c
DTITLE=Lou Rawls - The Very Best
DYEAR=2005
DGENRE=R&B
TTITLE0=Southside Blues/Tobacco Road
TTITLE1=Your Good Thing (Is About To End)
TTITLE2=You Can't Go Home No More
TTITLE3=At Last
TTITLE4=Room With A View
TTITLE5=Don't Let Me Be Misunderstood
TTITLE6=All Around The World
TTITLE7=This Bitter Earth
TTITLE8=Good Morning Blues
TTITLE9=A Lover's Question
TTITLE10=I Just Want To Make Love To You
TTITLE11=Sweet Slumber
EXTD=YEAR: 2005 ID3G: 0
EXTT0=
EXTT1=
EXTT2=
EXTT3=
EXTT4=
EXTT5=
EXTT6=
EXTT7=
EXTT8=
EXTT9=
EXTT10=
EXTT11=
PLAYORDER=
